<svg width="97" height="93" viewBox="0 0 97 93" fill="none" xmlns="http://www.w3.org/2000/svg">
<path fill-rule="evenodd" clip-rule="evenodd" d="M86.9525 0.636242C88.1451 0.0728837 89.4505 -0.121415 90.7327 0.0735675C92.015 0.26855 93.2272 0.845686 94.2433 1.74491C95.2593 2.64412 96.0421 3.83255 96.51 5.18649C96.978 6.54043 97.114 8.01039 96.904 9.44336L85.9583 83.9572C84.8965 91.1448 77.8696 95.2667 71.9962 91.6865C67.0831 88.6912 59.786 84.0764 53.2224 79.2612C49.9406 76.8509 39.8877 69.1325 41.1232 63.6402C42.185 58.9441 59.0765 41.2974 68.7289 30.8058C72.5174 26.6839 70.7896 24.3061 66.3158 28.0976C55.2059 37.5113 37.3684 51.8269 31.4709 55.8568C26.2683 59.41 23.556 60.0166 20.3128 59.41C14.3959 58.305 8.90856 56.5934 4.42988 54.5081C-1.62213 51.6915 -1.32774 42.3536 4.42505 39.6346L86.9525 0.636242Z" fill="white"/>
</svg>
