<svg width="185" height="57" viewBox="0 0 185 57" fill="none" xmlns="http://www.w3.org/2000/svg">
<rect x="0.714355" y="0.214355" width="56.5714" height="56.5714" rx="28.2857" fill="#FFDD2D"/>
<path d="M14.1499 15.771H43.8499V30.711C43.8499 34.5386 41.8064 38.0804 38.4923 39.9916L28.9999 45.471L19.5075 39.9916C16.1934 38.0751 14.1499 34.5386 14.1499 30.711V15.771Z" fill="white"/>
<path fill-rule="evenodd" clip-rule="evenodd" d="M22.303 23.6333V28.2815C22.9383 27.5615 24.0924 27.0798 25.4159 27.0798H26.8506V32.4798C26.8506 33.9145 26.4589 35.1745 25.8818 35.868H32.1236C31.5465 35.1745 31.1547 33.9198 31.1547 32.4851V27.0798H32.5894C33.9077 27.0798 35.0671 27.5668 35.7024 28.2815V23.6333H22.303Z" fill="#333333"/>
<mask id="mask0_94232_142" style="mask-type:alpha" maskUnits="userSpaceOnUse" x="52" y="0" width="48" height="57">
<path d="M52.0657 49.1192C56.9614 43.6464 59.9382 36.4209 59.9382 28.5001C59.9382 20.5792 56.9614 13.3537 52.0657 7.88097C57.1263 3.12683 63.9379 0.214355 71.4292 0.214355C87.0512 0.214355 99.7149 12.8781 99.7149 28.5001C99.7149 44.122 87.0512 56.7858 71.4292 56.7858C63.9379 56.7858 57.1263 53.8733 52.0657 49.1192Z" fill="#428BF9"/>
</mask>
<g mask="url(#mask0_94232_142)">
<rect x="43.1428" y="0.214355" width="56.5714" height="56.5714" rx="28.2857" fill="#52AE30"/>
<path fill-rule="evenodd" clip-rule="evenodd" d="M64.9465 28.501C64.9465 24.9203 67.8483 22.0176 71.428 22.0176C75.0078 22.0176 77.9108 24.9203 77.9108 28.501C77.9108 32.0804 75.0078 34.9819 71.428 34.9819C67.8483 34.9819 64.9465 32.0804 64.9465 28.501Z" fill="white"/>
<path fill-rule="evenodd" clip-rule="evenodd" d="M76.1428 20.2501C76.1428 18.2968 77.7259 16.7144 79.6785 16.7144C81.6312 16.7144 83.2143 18.2968 83.2143 20.2501C83.2143 22.2034 81.6312 23.7858 79.6785 23.7858C77.7259 23.7858 76.1428 22.2034 76.1428 20.2501Z" fill="white"/>
<path fill-rule="evenodd" clip-rule="evenodd" d="M71.4109 14.3569V19.4676C66.431 19.4751 62.3963 23.5161 62.3963 28.4998C62.3963 33.4885 66.4398 37.532 71.4285 37.532C76.387 37.532 80.4607 33.5275 80.4607 28.4659L85.5714 28.4696C85.5714 36.3115 79.2403 42.6426 71.4285 42.6426C63.618 42.6426 57.2856 36.3115 57.2856 28.4998C57.2856 20.6943 63.6092 14.367 71.4109 14.3569Z" fill="white"/>
</g>
<mask id="mask1_94232_142" style="mask-type:alpha" maskUnits="userSpaceOnUse" x="94" y="0" width="49" height="57">
<path d="M94.4941 49.1192C99.3898 43.6464 102.367 36.4209 102.367 28.5001C102.367 20.5792 99.3898 13.3537 94.4941 7.88097C99.5547 3.12683 106.366 0.214355 113.858 0.214355C129.48 0.214355 142.143 12.8781 142.143 28.5001C142.143 44.122 129.48 56.7858 113.858 56.7858C106.366 56.7858 99.5547 53.8733 94.4941 49.1192Z" fill="#428BF9"/>
</mask>
<g mask="url(#mask1_94232_142)">
<g clip-path="url(#clip0_94232_142)">
<rect x="85.5715" y="0.214355" width="56.5714" height="56.5714" rx="28.2857" fill="#E30611"/>
<g clip-path="url(#clip1_94232_142)">
<path fill-rule="evenodd" clip-rule="evenodd" d="M89.1064 29.7813C89.1064 31.3437 90.0007 32.9192 92.0032 32.9192C94.0039 32.9192 94.8999 31.3437 94.8999 29.7813C94.8999 28.7141 94.5324 27.4853 93.9191 26.4925C93.3227 25.534 92.606 24.9639 92.0032 24.9639C91.3985 24.9639 90.6817 25.534 90.0904 26.4925C89.4741 27.4853 89.1064 28.7141 89.1064 29.7813ZM109.673 27.3079H107.645V25.3901H113.873V27.3079H111.846L111.846 32.4931H109.673L109.673 27.3079ZM118.507 27.3079H121.694V25.3901H118.507C115.58 25.3901 114.017 26.8178 114.017 28.9416C114.017 31.0654 115.58 32.4931 118.507 32.4931H121.694V30.5753H118.507C117.152 30.5753 116.261 30.1002 116.261 28.9416C116.261 27.7829 117.152 27.3079 118.507 27.3079ZM102.068 29.6298L103.226 25.3901H107.065V32.4931H104.893V26.7119L103.314 32.4931H100.823L99.2443 26.7156V32.4931H97.0717V25.3901H100.91L102.068 29.6298ZM125.656 27.449H124.89V28.1438H125.656C125.85 28.1438 125.966 28.046 125.966 27.8658V27.7371C125.966 27.5518 125.866 27.449 125.656 27.449ZM125.85 28.9416H123.867V25.39H126.784V26.2394H124.89V26.7025H125.85C126.653 26.7025 127.042 27.0937 127.042 27.7834C127.042 28.5092 126.653 28.9416 125.85 28.9416ZM129.402 27.49H128.594L128.998 26.1776L129.402 27.49ZM130.955 28.9416L129.838 25.3901H128.316L127.198 28.9416H128.153L128.358 28.2621H129.638L129.848 28.9416H130.955ZM133.542 28.9416V27.5673H132.372V28.9416H131.322V25.3901H132.372V26.6923H133.542V25.3901H134.592V28.9416H133.542ZM136.455 26.6923H136.271V25.3901H135.222V28.9415H136.271V27.5673H136.423L137.394 28.9415H138.606L137.295 27.0835L138.502 25.3901H137.394L136.455 26.6923Z" fill="white"/>
</g>
</g>
</g>
<mask id="mask2_94232_142" style="mask-type:alpha" maskUnits="userSpaceOnUse" x="136" y="0" width="49" height="57">
<path d="M136.923 49.1192C141.819 43.6464 144.795 36.4209 144.795 28.5001C144.795 20.5792 141.819 13.3537 136.923 7.88097C141.983 3.12683 148.795 0.214355 156.286 0.214355C171.908 0.214355 184.572 12.8781 184.572 28.5001C184.572 44.122 171.908 56.7858 156.286 56.7858C148.795 56.7858 141.983 53.8733 136.923 49.1192Z" fill="#428BF9"/>
</mask>
<g mask="url(#mask2_94232_142)">
<rect x="129.326" y="1.54025" width="53.9196" height="53.9196" rx="26.9598" stroke="#FFDD2D" stroke-width="2.65179"/>
<path d="M153.705 30.254H157.862V32.5254H153.705V36.932H151.252V32.5254H147.118V30.254H151.252V25.8474H153.705V30.254ZM160.275 27.1876C160.184 26.809 160.139 26.4531 160.139 26.12C160.139 25.5143 160.267 24.9691 160.525 24.4846C160.782 24 161.131 23.5911 161.57 23.258C162.009 22.9097 162.524 22.6447 163.114 22.463C163.705 22.2813 164.333 22.1904 165 22.1904C165.696 22.1904 166.34 22.2737 166.93 22.4403C167.536 22.5917 168.058 22.834 168.498 23.1671C168.937 23.5003 169.277 23.9167 169.52 24.4164C169.777 24.901 169.906 25.4764 169.906 26.1427C169.906 27.0816 169.679 27.8084 169.224 28.3233C168.785 28.8381 168.18 29.247 167.407 29.5499V29.7997C168.24 30.1026 168.891 30.5569 169.361 31.1626C169.845 31.7683 170.088 32.5481 170.088 33.5021C170.088 34.1987 169.944 34.8044 169.656 35.3193C169.383 35.819 169.005 36.2354 168.52 36.5686C168.051 36.9017 167.498 37.1516 166.862 37.3181C166.226 37.4847 165.545 37.568 164.818 37.568C164.182 37.568 163.561 37.4771 162.955 37.2954C162.35 37.1289 161.812 36.879 161.343 36.5459C160.873 36.2127 160.495 35.7963 160.207 35.2966C159.934 34.7969 159.798 34.2214 159.798 33.5703C159.798 33.4037 159.806 33.2447 159.821 33.0933C159.851 32.9267 159.881 32.7526 159.912 32.5709H162.796C162.736 32.8283 162.705 33.0857 162.705 33.3431C162.705 33.6914 162.766 33.9867 162.887 34.229C163.008 34.4561 163.167 34.6454 163.364 34.7969C163.576 34.9331 163.811 35.0316 164.068 35.0921C164.341 35.1527 164.629 35.183 164.931 35.183C165.219 35.183 165.492 35.1451 165.749 35.0694C166.007 34.9937 166.234 34.8801 166.431 34.7287C166.627 34.5621 166.779 34.3501 166.885 34.0927C167.006 33.8201 167.067 33.4946 167.067 33.116C167.067 32.3437 166.855 31.791 166.431 31.4579C166.007 31.1247 165.499 30.9581 164.909 30.9581H163.909V28.6867H164.931C165.507 28.6867 165.991 28.5201 166.385 28.187C166.779 27.8387 166.976 27.3011 166.976 26.5743C166.976 25.8171 166.771 25.2796 166.362 24.9616C165.954 24.6436 165.469 24.4846 164.909 24.4846C164.348 24.4846 163.864 24.636 163.455 24.9389C163.061 25.2417 162.864 25.7111 162.864 26.3471C162.864 26.5894 162.91 26.8696 163.001 27.1876H160.275Z" fill="black" fill-opacity="0.8"/>
</g>
<defs>
<clipPath id="clip0_94232_142">
<rect x="85.5715" y="0.214355" width="56.5714" height="56.5714" rx="28.2857" fill="white"/>
</clipPath>
<clipPath id="clip1_94232_142">
<rect width="49.5" height="7.95536" fill="white" transform="translate(89.1072 24.9644)"/>
</clipPath>
</defs>
</svg>
