<svg width="33" height="30" viewBox="0 0 33 30" fill="none" xmlns="http://www.w3.org/2000/svg">
<path d="M16.5 20.8333V28.125M25.25 28.125L19.4875 23.3229C18.4247 22.4373 17.8933 21.9944 17.3001 21.8252C16.7771 21.676 16.2228 21.676 15.6998 21.8252C15.1066 21.9944 14.5752 22.4373 13.5124 23.3229L7.74996 28.125M10.6666 13.5417V15M16.5 10.625V15M22.3333 7.70833V15M31.0833 1.875H1.91663M3.37496 1.875H29.625V13.8333C29.625 16.2836 29.625 17.5087 29.1481 18.4445C28.7287 19.2678 28.0594 19.937 27.2362 20.3565C26.3003 20.8333 25.0752 20.8333 22.625 20.8333H10.375C7.92473 20.8333 6.69961 20.8333 5.76375 20.3565C4.94054 19.937 4.27125 19.2678 3.85181 18.4445C3.37496 17.5087 3.37496 16.2836 3.37496 13.8333V1.875Z" stroke="black" stroke-width="2" stroke-linecap="round" stroke-linejoin="round"/>
</svg>
