<svg width="29" height="30" viewBox="0 0 29 30" fill="none" xmlns="http://www.w3.org/2000/svg">
<path d="M27.625 28.125H3.70833C2.89159 28.125 2.48322 28.125 2.17126 27.9661C1.89686 27.8262 1.67376 27.6031 1.53395 27.3287C1.375 27.0168 1.375 26.6084 1.375 25.7917V1.875M27.625 7.70833L19.7 15.6334C19.4112 15.9221 19.2668 16.0665 19.1003 16.1206C18.9539 16.1682 18.7961 16.1682 18.6497 16.1206C18.4832 16.0665 18.3388 15.9221 18.05 15.6334L15.325 12.9083C15.0362 12.6195 14.8918 12.4751 14.7253 12.4211C14.5789 12.3735 14.4211 12.3735 14.2747 12.4211C14.1082 12.4751 13.9638 12.6195 13.675 12.9083L7.20833 19.375M27.625 7.70833H21.7917M27.625 7.70833V13.5417" stroke="black" stroke-width="2" stroke-linecap="round" stroke-linejoin="round"/>
</svg>
