<svg width="31" height="32" viewBox="0 0 31 32" fill="none" xmlns="http://www.w3.org/2000/svg">
<path d="M15.5001 1.41675C19.1478 5.41018 21.2208 10.5926 21.3334 16.0001C21.2208 21.4075 19.1478 26.59 15.5001 30.5834M15.5001 1.41675C11.8524 5.41018 9.7794 10.5926 9.66675 16.0001C9.7794 21.4075 11.8524 26.59 15.5001 30.5834M15.5001 1.41675C7.44593 1.41675 0.916748 7.94593 0.916748 16.0001C0.916748 24.0542 7.44593 30.5834 15.5001 30.5834M15.5001 1.41675C23.5542 1.41675 30.0834 7.94593 30.0834 16.0001C30.0834 24.0542 23.5542 30.5834 15.5001 30.5834M1.64594 11.6251H29.3543M1.64591 20.3751H29.3543" stroke="black" stroke-width="1.5" stroke-linecap="round" stroke-linejoin="round"/>
</svg>
