<svg width="31" height="28" viewBox="0 0 31 28" fill="none" xmlns="http://www.w3.org/2000/svg">
<path d="M15.4781 18.97L20.206 24.3455C21.956 26.3361 22.8324 27.3321 23.7497 27.0886C24.6656 26.8465 24.9806 25.5369 25.6091 22.9163L29.0945 8.37963C30.0643 4.34296 30.5485 2.32609 29.4722 1.33005C28.396 0.334005 26.5308 1.07484 22.8004 2.55505L5.49578 9.42817C2.51203 10.6138 1.02016 11.2059 0.925364 12.2238C0.914201 12.3275 0.914201 12.4322 0.925364 12.5359C1.01724 13.5553 2.5062 14.1517 5.48703 15.3461C6.83599 15.8871 7.5112 16.1584 7.99536 16.6761C8.04981 16.7344 8.10231 16.7947 8.15286 16.8569C8.59911 17.4111 8.7887 18.1403 9.16932 19.5928L9.88245 22.3155C10.2514 23.73 10.4366 24.4388 10.9222 24.5351C11.4079 24.6313 11.8293 24.045 12.6737 22.8711L15.4781 18.97ZM15.4781 18.97L15.0158 18.4888C14.4879 17.9375 14.2239 17.6634 14.2239 17.3221C14.2239 16.9809 14.4864 16.7053 15.0158 16.1555L20.2264 10.7246" stroke="black" stroke-width="1.5" stroke-linecap="round" stroke-linejoin="round"/>
</svg>
