<svg width="193" height="296" viewBox="0 0 193 296" fill="none" xmlns="http://www.w3.org/2000/svg">
<path d="M15.8339 7.20699e-06H73.5812C75.661 -0.00200337 77.7209 0.416682 79.6429 1.2321C81.5648 2.04752 83.3111 3.24367 84.7818 4.75208C86.2525 6.2605 87.4188 8.05157 88.2138 10.0228C89.0088 11.994 89.417 14.1067 89.4151 16.2399V73.1752C89.417 75.3084 89.0088 77.4211 88.2138 79.3923C87.4188 81.3635 86.2525 83.1546 84.7818 84.663C83.3111 86.1714 81.5648 87.3676 79.6429 88.183C77.7209 88.9984 75.661 89.4171 73.5812 89.4151H15.8339C13.754 89.4171 11.6942 88.9984 9.77223 88.183C7.85028 87.3676 6.10399 86.1714 4.63328 84.663C3.16258 83.1546 1.99633 81.3635 1.2013 79.3923C0.406265 77.4211 -0.00195329 75.3084 7.02682e-06 73.1752V16.2399C-0.00195329 14.1067 0.406265 11.994 1.2013 10.0228C1.99633 8.05157 3.16258 6.2605 4.63328 4.75208C6.10399 3.24367 7.85028 2.04752 9.77223 1.2321C11.6942 0.416682 13.754 -0.00200337 15.8339 7.20699e-06Z" fill="#2965F1"/>
<path d="M22.0404 36.5253L22.9356 46.2539H45.2895V36.5253H22.0404ZM20.2413 16.8345L21.1493 26.5631H45.2895V16.8345H20.2413ZM45.2895 61.7916L45.2457 61.8029L34.1209 58.8773L33.4096 51.1184H23.3819L24.7813 66.3938L45.2436 71.9257L45.2895 71.9135V61.7916Z" fill="#EBEBEB"/>
<path d="M68.4748 36.5253L70.2779 16.8345H45.2551V26.5631H59.3307L58.4218 36.5253H45.2551V46.2539H57.5557L56.3959 58.8712L45.2548 61.7998V71.9211L65.7333 66.3938L65.8834 64.7501L68.2311 39.1377L68.4748 36.5253Z" fill="white"/>
<path d="M118.661 7.20699e-06H176.409C178.488 -0.00200337 180.548 0.416682 182.47 1.2321C184.392 2.04752 186.138 3.24367 187.609 4.75208C189.08 6.2605 190.246 8.05157 191.041 10.0228C191.836 11.994 192.244 14.1067 192.242 16.2399V73.1752C192.244 75.3084 191.836 77.4211 191.041 79.3923C190.246 81.3635 189.08 83.1546 187.609 84.663C186.138 86.1714 184.392 87.3676 182.47 88.183C180.548 88.9984 178.488 89.4171 176.409 89.4151H118.661C116.581 89.4171 114.522 88.9984 112.6 88.183C110.678 87.3676 108.931 86.1714 107.461 84.663C105.99 83.1546 104.824 81.3635 104.029 79.3923C103.234 77.4211 102.825 75.3084 102.827 73.1752V16.2399C102.825 14.1067 103.234 11.994 104.029 10.0228C104.824 8.05157 105.99 6.2605 107.461 4.75208C108.931 3.24367 110.678 2.04752 112.6 1.2321C114.522 0.416682 116.581 -0.00200337 118.661 7.20699e-06Z" fill="#F16529"/>
<path d="M134.653 26.5628H148.784V16.8342H123.736L123.975 19.4442L126.43 46.2537H148.784V36.5251H135.566L134.653 26.5628ZM136.904 51.1181H126.877L128.276 66.3935L148.738 71.9254L148.784 71.9132V61.7913L148.74 61.8026L137.615 58.8771L136.904 51.1181Z" fill="#EBEBEB"/>
<path d="M148.749 46.2537H161.05L159.89 58.871L148.749 61.7996V71.9208L169.227 66.3935L169.377 64.7498L171.725 39.1375L171.969 36.5251H148.749V46.2537ZM148.749 26.5391V26.5628H172.878L173.078 24.3763L173.533 19.4442L173.772 16.8342H148.749V26.5394V26.5391Z" fill="white"/>
<path d="M15.8339 102.827H73.5812C75.661 102.825 77.7209 103.244 79.6429 104.059C81.5648 104.875 83.3111 106.071 84.7818 107.579C86.2525 109.088 87.4188 110.879 88.2138 112.85C89.0088 114.821 89.417 116.934 89.4151 119.067V176.003C89.417 178.136 89.0088 180.248 88.2138 182.22C87.4188 184.191 86.2525 185.982 84.7818 187.49C83.3111 188.999 81.5648 190.195 79.6429 191.01C77.7209 191.826 75.661 192.244 73.5812 192.242H15.8339C13.754 192.244 11.6942 191.826 9.77223 191.01C7.85028 190.195 6.10399 188.999 4.63328 187.49C3.16258 185.982 1.99633 184.191 1.2013 182.22C0.406265 180.248 -0.00195329 178.136 7.02682e-06 176.003V119.067C-0.00195329 116.934 0.406265 114.821 1.2013 112.85C1.99633 110.879 3.16258 109.088 4.63328 107.579C6.10399 106.071 7.85028 104.875 9.77223 104.059C11.6942 103.244 13.754 102.825 15.8339 102.827Z" fill="#777BB3"/>
<path d="M21.461 152.305C23.673 152.305 25.3244 151.908 26.3692 151.125C27.4029 150.349 28.1169 149.007 28.4911 147.133C28.84 145.382 28.7071 144.16 28.0962 143.5C27.4715 142.826 26.121 142.484 24.0822 142.484H20.5472L18.5874 152.305H21.461ZM9.89876 164.403C9.73466 164.403 9.57882 164.331 9.4745 164.208C9.36999 164.084 9.32764 163.922 9.35899 163.765L14.5528 137.739C14.603 137.488 14.8294 137.306 15.0927 137.306H26.2866C29.8046 137.306 32.4231 138.236 34.069 140.071C35.7236 141.916 36.2346 144.495 35.5876 147.735C35.3243 149.056 34.8714 150.282 34.2417 151.38C33.6111 152.479 32.7778 153.496 31.7645 154.403C30.5515 155.508 29.1786 156.31 27.6877 156.782C26.2204 157.247 24.336 157.483 22.0869 157.483H17.5543L16.2599 163.969C16.2096 164.221 15.9834 164.403 15.7201 164.403H9.89876Z" fill="black"/>
<path d="M21.001 143.02H24.0826C26.5433 143.02 27.398 143.546 27.6884 143.859C28.1703 144.379 28.2612 145.477 27.9515 147.032C27.6035 148.773 26.9585 150.007 26.0341 150.7C25.0877 151.41 23.5491 151.769 21.4613 151.769H19.255L21.001 143.02ZM26.2869 136.77H15.0929C14.5663 136.77 14.1137 137.134 14.0132 137.637L8.81943 163.663C8.75672 163.977 8.84143 164.301 9.05026 164.548C9.25927 164.795 9.57059 164.938 9.89914 164.938H15.7203C16.247 164.938 16.6997 164.575 16.8002 164.071L18.0081 158.019H22.0873C24.3941 158.019 26.3361 157.774 27.8588 157.291C29.4247 156.796 30.8654 155.955 32.1406 154.794C33.1952 153.849 34.0638 152.788 34.722 151.641C35.3804 150.494 35.8535 149.214 36.1279 147.837C36.809 144.426 36.2557 141.695 34.4835 139.719C32.7285 137.762 29.9707 136.77 26.2869 136.77ZM17.9204 152.841H21.4613C23.8083 152.841 25.5565 152.41 26.7052 151.549C27.854 150.688 28.6288 149.25 29.0314 147.236C29.4166 145.301 29.2412 143.936 28.505 143.141C27.768 142.346 26.2941 141.949 24.0826 141.949H20.0941L17.9204 152.841ZM26.2869 137.842C29.6544 137.842 32.111 138.702 33.6552 140.424C35.1991 142.145 35.6641 144.548 35.048 147.633C34.7945 148.904 34.3656 150.066 33.7619 151.119C33.1574 152.172 32.3681 153.135 31.3927 154.008C30.2303 155.068 28.939 155.823 27.5181 156.272C26.0972 156.723 24.2874 156.948 22.0873 156.948H17.1011L15.7203 163.867H9.89914L15.0929 137.842H26.2869Z" fill="white"/>
<path d="M48.9349 157.484C48.7706 157.484 48.615 157.412 48.5107 157.289C48.406 157.165 48.3636 157.003 48.395 156.846L50.6924 145.331C50.911 144.236 50.8571 143.449 50.5408 143.117C50.3472 142.914 49.7656 142.574 48.0461 142.574H43.8838L40.9952 157.05C40.945 157.302 40.7186 157.484 40.4553 157.484H34.6799C34.5157 157.484 34.36 157.412 34.2555 157.289C34.151 157.165 34.1086 157.003 34.14 156.846L39.3338 130.82C39.384 130.569 39.6104 130.387 39.8737 130.387H45.649C45.8133 130.387 45.969 130.458 46.0735 130.582C46.178 130.705 46.2203 130.868 46.189 131.025L44.9356 137.306H49.4133C52.8244 137.306 55.1374 137.892 56.4846 139.097C57.8579 140.326 58.2864 142.292 57.7583 144.939L55.3419 157.05C55.2916 157.302 55.0654 157.484 54.8019 157.484H48.9349Z" fill="black"/>
<path d="M45.6489 129.851H39.8736C39.3469 129.851 38.8942 130.215 38.7937 130.718L33.5999 156.743C33.5372 157.057 33.6219 157.382 33.831 157.629C34.04 157.876 34.3513 158.019 34.6798 158.019H40.4552C40.9817 158.019 41.4346 157.655 41.5351 157.152L44.3371 143.109H48.046C49.7626 143.109 50.1229 143.466 50.1374 143.482C50.2415 143.591 50.3785 144.096 50.1524 145.228L47.8549 156.743C47.7922 157.057 47.8769 157.382 48.0859 157.629C48.2949 157.876 48.6063 158.019 48.9348 158.019H54.8018C55.3284 158.019 55.7812 157.655 55.8817 157.152L58.298 145.041C58.8651 142.198 58.3799 140.066 56.8567 138.702C55.4032 137.402 52.9684 136.77 49.4132 136.77H45.6025L46.7288 131.127C46.7913 130.813 46.7068 130.488 46.4978 130.241C46.2888 129.994 45.9775 129.851 45.6489 129.851ZM45.6489 130.922L44.2682 137.842H49.4132C52.6505 137.842 54.8834 138.392 56.1123 139.491C57.3413 140.591 57.7095 142.373 57.2183 144.837L54.8018 156.948H48.9348L51.2323 145.433C51.4937 144.123 51.3977 143.229 50.9437 142.753C50.4896 142.276 49.5235 142.038 48.046 142.038H43.4301L40.4552 156.948H34.6798L39.8736 130.922H45.6489Z" fill="white"/>
<path d="M66.8964 152.305C69.1084 152.305 70.7598 151.908 71.8047 151.125C72.8383 150.35 73.5523 149.007 73.9267 147.133C74.2756 145.382 74.1427 144.16 73.5316 143.5C72.9069 142.826 71.5564 142.484 69.5176 142.484H65.9826L64.0228 152.305H66.8964ZM55.3343 164.403C55.1703 164.403 55.0144 164.331 54.9101 164.208C54.8056 164.084 54.763 163.922 54.7944 163.765L59.9882 137.739C60.0386 137.488 60.2648 137.306 60.5283 137.306H71.722C75.2402 137.306 77.8585 138.236 79.5045 140.071C81.1592 141.916 81.67 144.494 81.0232 147.735C80.7595 149.056 80.3069 150.282 79.6771 151.38C79.0465 152.479 78.2133 153.496 77.1999 154.403C75.9869 155.508 74.614 156.31 73.1231 156.782C71.6558 157.247 69.7714 157.483 67.5223 157.483H62.9895L61.6956 163.969C61.6452 164.221 61.419 164.403 61.1555 164.403H55.3343Z" fill="black"/>
<path d="M66.4361 143.02H69.5177C71.9784 143.02 72.8331 143.546 73.1235 143.859C73.6056 144.379 73.6965 145.477 73.3866 147.031C73.0387 148.773 72.3935 150.007 71.4692 150.7C70.5228 151.41 68.9842 151.769 66.8965 151.769H64.6903L66.4361 143.02ZM71.7221 136.77H60.5282C60.0016 136.77 59.549 137.134 59.4485 137.637L54.2547 163.663C54.192 163.977 54.2767 164.301 54.4856 164.548C54.6946 164.795 55.0059 164.938 55.3344 164.938H61.1556C61.6822 164.938 62.135 164.575 62.2355 164.071L63.4432 158.019H67.5224C69.8292 158.019 71.7712 157.774 73.2939 157.291C74.8598 156.796 76.3009 155.955 77.576 154.794C78.6306 153.849 79.499 152.788 80.1572 151.641C80.8155 150.494 81.2886 149.214 81.563 147.837C82.2442 144.426 81.6908 141.694 79.9186 139.719C78.1637 137.762 75.406 136.77 71.7221 136.77ZM63.3557 152.841H66.8965C69.2434 152.841 70.9916 152.41 72.1403 151.549C73.2893 150.688 74.0639 149.25 74.4665 147.236C74.8519 145.301 74.6765 143.936 73.9402 143.141C73.2031 142.346 71.7292 141.949 69.5177 141.949H65.5293L63.3557 152.841ZM71.7221 137.842C75.0895 137.842 77.5462 138.702 79.0903 140.424C80.6344 142.145 81.0992 144.548 80.4831 147.633C80.2296 148.904 79.8007 150.066 79.197 151.119C78.5925 152.172 77.8032 153.135 76.8278 154.008C75.6654 155.068 74.3741 155.823 72.9532 156.272C71.5323 156.723 69.7225 156.948 67.5224 156.948H62.5362L61.1556 163.867H55.3344L60.5282 137.842H71.7221Z" fill="white"/>
<path d="M118.661 102.827H176.409C178.488 102.825 180.548 103.244 182.47 104.059C184.392 104.875 186.138 106.071 187.609 107.579C189.08 109.088 190.246 110.879 191.041 112.85C191.836 114.821 192.244 116.934 192.242 119.067V176.003C192.244 178.136 191.836 180.248 191.041 182.22C190.246 184.191 189.08 185.982 187.609 187.49C186.138 188.999 184.392 190.195 182.47 191.01C180.548 191.826 178.488 192.244 176.409 192.242H118.661C116.581 192.244 114.522 191.826 112.6 191.01C110.678 190.195 108.931 188.999 107.461 187.49C105.99 185.982 104.824 184.191 104.029 182.22C103.234 180.248 102.825 178.136 102.827 176.003V119.067C102.825 116.934 103.234 114.821 104.029 112.85C104.824 110.879 105.99 109.088 107.461 107.579C108.931 106.071 110.678 104.875 112.6 104.059C114.522 103.244 116.581 102.825 118.661 102.827Z" fill="#FF2D20"/>
<g clip-path="url(#clip0_64_565)">
<path fill-rule="evenodd" clip-rule="evenodd" d="M174.566 132.362C174.586 132.433 174.596 132.506 174.596 132.58V144.037C174.596 144.184 174.557 144.329 174.481 144.456C174.405 144.583 174.297 144.689 174.166 144.762L164.309 150.299V161.273C164.309 161.571 164.146 161.847 163.88 161.997L143.304 173.553C143.257 173.579 143.206 173.596 143.154 173.613C143.135 173.62 143.117 173.631 143.096 173.636C142.953 173.673 142.801 173.673 142.658 173.636C142.634 173.63 142.613 173.618 142.59 173.609C142.543 173.593 142.494 173.578 142.449 173.553L121.877 161.997C121.746 161.924 121.637 161.818 121.562 161.691C121.486 161.564 121.447 161.42 121.446 161.273V126.9C121.446 126.825 121.457 126.752 121.476 126.681C121.483 126.657 121.498 126.635 121.506 126.611C121.522 126.567 121.537 126.522 121.561 126.481C121.577 126.454 121.601 126.432 121.62 126.407C121.644 126.374 121.667 126.339 121.696 126.31C121.72 126.286 121.753 126.268 121.78 126.248C121.811 126.223 121.839 126.195 121.875 126.176L132.162 120.398C132.292 120.325 132.44 120.286 132.59 120.286C132.741 120.286 132.888 120.325 133.019 120.398L143.305 126.176H143.307C143.342 126.196 143.37 126.223 143.401 126.247C143.429 126.267 143.46 126.286 143.485 126.309C143.515 126.339 143.536 126.374 143.562 126.407C143.58 126.432 143.605 126.454 143.62 126.481C143.644 126.523 143.658 126.567 143.676 126.611C143.684 126.635 143.699 126.657 143.705 126.682C143.725 126.753 143.735 126.827 143.735 126.9V148.369L152.307 143.554V132.579C152.307 132.506 152.318 132.432 152.337 132.362C152.345 132.337 152.359 132.315 152.367 132.291C152.384 132.247 152.399 132.202 152.423 132.161C152.439 132.134 152.462 132.112 152.481 132.087C152.506 132.054 152.528 132.019 152.558 131.99C152.582 131.966 152.613 131.948 152.641 131.927C152.673 131.902 152.701 131.875 152.735 131.855L163.024 126.077C163.154 126.004 163.302 125.966 163.452 125.966C163.603 125.966 163.75 126.004 163.88 126.077L174.167 131.855C174.203 131.876 174.231 131.902 174.263 131.926C174.29 131.947 174.321 131.966 174.346 131.989C174.376 132.019 174.397 132.054 174.423 132.087C174.442 132.112 174.466 132.134 174.481 132.161C174.505 132.202 174.519 132.247 174.536 132.291C174.546 132.315 174.56 132.337 174.566 132.362ZM172.882 143.554V134.026L169.282 136.048L164.309 138.841V148.369L172.883 143.554H172.882ZM162.595 160.789V151.255L157.703 153.981L143.734 161.758V171.382L162.595 160.789ZM123.161 128.347V160.789L142.02 171.381V161.759L132.168 156.32L132.164 156.318L132.16 156.316C132.127 156.297 132.099 156.27 132.068 156.247C132.041 156.226 132.01 156.209 131.987 156.186L131.985 156.183C131.957 156.157 131.937 156.124 131.914 156.095C131.892 156.067 131.867 156.043 131.85 156.014L131.849 156.011C131.829 155.979 131.818 155.942 131.804 155.906C131.79 155.875 131.772 155.846 131.763 155.812C131.752 155.773 131.75 155.73 131.746 155.689C131.742 155.658 131.733 155.626 131.733 155.595V155.593V133.162L126.761 130.367L123.161 128.347ZM132.591 122.087L124.021 126.9L132.589 131.713L141.159 126.899L132.589 122.087H132.591ZM137.049 152.124L142.021 149.332V128.347L138.421 130.368L133.448 133.162V154.147L137.049 152.124ZM163.452 127.767L154.883 132.58L163.452 137.393L172.021 132.579L163.452 127.767ZM162.595 138.841L157.622 136.048L154.022 134.026V143.554L158.994 146.346L162.595 148.369V138.841ZM142.876 160.312L155.446 153.311L161.729 149.813L153.166 145.003L143.306 150.541L134.32 155.588L142.876 160.312Z" fill="white"/>
</g>
<path d="M15.8339 205.655H73.5812C75.661 205.653 77.7209 206.071 79.6429 206.887C81.5648 207.702 83.3111 208.898 84.7818 210.407C86.2525 211.915 87.4188 213.706 88.2138 215.678C89.0088 217.649 89.417 219.761 89.4151 221.895V278.83C89.417 280.963 89.0088 283.076 88.2138 285.047C87.4188 287.018 86.2525 288.809 84.7818 290.318C83.3111 291.826 81.5648 293.022 79.6429 293.838C77.7209 294.653 75.661 295.072 73.5812 295.07H15.8339C13.754 295.072 11.6942 294.653 9.77223 293.838C7.85028 293.022 6.10399 291.826 4.63328 290.318C3.16258 288.809 1.99633 287.018 1.2013 285.047C0.406265 283.076 -0.00195329 280.963 7.02682e-06 278.83V221.895C-0.00195329 219.761 0.406265 217.649 1.2013 215.678C1.99633 213.706 3.16258 211.915 4.63328 210.407C6.10399 208.898 7.85028 207.702 9.77223 206.887C11.6942 206.071 13.754 205.653 15.8339 205.655Z" fill="#F7DF1E"/>
<path d="M60.8953 275.389C62.7119 278.303 65.0753 280.445 69.2553 280.445C72.7668 280.445 75.01 278.721 75.01 276.338C75.01 273.483 72.7052 272.472 68.8402 270.811L66.7216 269.918C60.6062 267.359 56.5436 264.152 56.5436 257.373C56.5436 251.129 61.3863 246.375 68.9547 246.375C74.3429 246.375 78.2165 248.218 81.0079 253.042L74.4087 257.204C72.9557 254.645 71.3883 253.636 68.9547 253.636C66.4725 253.636 64.8993 255.183 64.8993 257.204C64.8993 259.702 66.4739 260.713 70.1099 262.26L72.2285 263.152C79.429 266.186 83.4945 269.278 83.4945 276.231C83.4945 283.727 77.5008 287.834 69.4514 287.834C61.581 287.834 56.4963 284.149 54.0084 279.32L60.8953 275.389ZM30.9583 276.11C32.2896 278.431 33.5007 280.393 36.4124 280.393C39.1966 280.393 40.9531 279.323 40.9531 275.161V246.851H49.4276V275.274C49.4276 283.895 44.2828 287.819 36.7731 287.819C29.9878 287.819 26.0583 284.369 24.0599 280.214L30.9583 276.11Z" fill="black"/>
<path d="M118.661 205.655H176.409C178.488 205.653 180.548 206.071 182.47 206.887C184.392 207.702 186.138 208.898 187.609 210.407C189.08 211.915 190.246 213.706 191.041 215.678C191.836 217.649 192.244 219.761 192.242 221.895V278.83C192.244 280.963 191.836 283.076 191.041 285.047C190.246 287.018 189.08 288.809 187.609 290.318C186.138 291.826 184.392 293.022 182.47 293.838C180.548 294.653 178.488 295.072 176.409 295.07H118.661C116.581 295.072 114.522 294.653 112.6 293.838C110.678 293.022 108.931 291.826 107.461 290.318C105.99 288.809 104.824 287.018 104.029 285.047C103.234 283.076 102.825 280.963 102.827 278.83V221.895C102.825 219.761 103.234 217.649 104.029 215.678C104.824 213.706 105.99 211.915 107.461 210.407C108.931 208.898 110.678 207.702 112.6 206.887C114.522 206.071 116.581 205.653 118.661 205.655Z" fill="#3771A1"/>
<path d="M148.004 220.274C132.372 220.274 133.348 226.934 133.348 226.934L133.366 233.834H148.283V235.906H127.441C127.441 235.906 117.438 234.791 117.438 250.287C117.438 265.783 126.168 265.234 126.168 265.234H131.379V258.043C131.379 258.043 131.098 249.465 139.97 249.465C148.843 249.465 154.766 249.465 154.766 249.465C154.766 249.465 163.078 249.597 163.078 241.573C163.078 233.548 163.078 228.304 163.078 228.304C163.078 228.304 164.34 220.274 148.004 220.274ZM139.779 224.914C141.263 224.914 142.462 226.092 142.462 227.551C142.462 229.009 141.263 230.187 139.779 230.187C138.294 230.187 137.095 229.009 137.095 227.551C137.095 226.092 138.294 224.914 139.779 224.914Z" fill="white"/>
<path d="M148.448 280.456C164.08 280.456 163.104 273.796 163.104 273.796L163.086 266.896H148.169V264.824H169.012C169.012 264.824 179.014 265.939 179.014 250.443C179.014 234.947 170.284 235.496 170.284 235.496H165.073V242.687C165.073 242.687 165.354 251.264 156.482 251.264C147.609 251.264 141.686 251.264 141.686 251.264C141.686 251.264 133.374 251.132 133.374 259.157C133.374 267.182 133.374 272.426 133.374 272.426C133.374 272.426 132.112 280.456 148.448 280.456ZM156.673 275.816C155.189 275.816 153.99 274.637 153.99 273.179C153.99 271.721 155.189 270.543 156.673 270.543C158.158 270.543 159.357 271.721 159.357 273.179C159.357 274.637 158.158 275.816 156.673 275.816Z" fill="#FFD242"/>
<defs>
<clipPath id="clip0_64_565">
<rect width="53.5203" height="54.3006" fill="white" transform="translate(121.446 120.286)"/>
</clipPath>
</defs>
</svg>
